# xmcd
#
# Track frame offsets: 
#        150
#        21342
#        39732
#        52135
#        73162
#        89982
#        103162
#        125965
#        136757
#        170195
#        182297
#        202147
#        228927
#        237805
#        255037
#        268370
#
# Disc length: 3828 seconds
#
# Revision: 0
# Processed by: cddbd v1.5.1PL0 Copyright (c) Steve Scherf et al.
# Submitted via: ExactAudioCopy v0.95a5
#
DISCID=f70ef210
DTITLE=Dan Patlansky - True Blues
DYEAR=2004
DGENRE=Blues
TTITLE0=Travelling Riverside Blues
TTITLE1=Got My Geetar
TTITLE2=Night Time Train
TTITLE3=Damon
TTITLE4=Mow De Lawn
TTITLE5=Mighty Crazy
TTITLE6=Hootchie Cootchie Man
TTITLE7=Hilly Billy In A Woodchipper
TTITLE8=Heart Of Stone
TTITLE9=Letter To My Girlfriend
TTITLE10=Jaded
TTITLE11=I Ain't Superstitious
TTITLE12=Poker Queen
TTITLE13=Frozen Dirt
TTITLE14=Don't Be Fooled
TTITLE15=Pistol Whip
EXTD=
EXTT0=
EXTT1=
EXTT2=
EXTT3=
EXTT4=
EXTT5=
EXTT6=
EXTT7=
EXTT8=
EXTT9=
EXTT10=
EXTT11=
EXTT12=
EXTT13=
EXTT14=
EXTT15=
PLAYORDER=
